<svg width="267" height="59" viewBox="0 0 267 59" fill="none" xmlns="http://www.w3.org/2000/svg">
<g clip-path="url(#clip0_10034_405)">
<path d="M16.564 8.83789C25.8018 8.83789 31.849 12.6159 31.849 20.0394V20.7023H23.8548V19.9658C23.8548 15.8564 20.5931 14.597 16.564 14.597H15.4768C11.3198 14.597 8.50586 15.7238 8.50586 18.7064C8.50586 21.6891 11.1919 22.4845 18.2268 23.4124C28.4594 24.8853 32.2967 27.787 32.2967 33.2884V33.7523C32.2967 40.1816 26.5408 43.6945 16.7559 43.6945H15.6687C5.9477 43.6798 0 40.1669 0 32.4046V31.8743H7.93027V32.5372C7.93027 36.3815 10.8721 37.8397 15.6687 37.8397H16.7559C22.0001 37.8397 24.3024 36.514 24.3024 33.8628C24.3024 30.917 21.6803 29.9522 14.1977 28.958C5.37212 27.8385 0.447677 25.5187 0.447677 19.222V18.758C0.447677 12.5202 6.45933 8.83789 15.4768 8.83789H16.564Z" fill="white"/>
<path d="M46.6866 9.41233V13.8311H48.0296C50.5238 10.4728 54.2971 8.83789 58.9799 8.83789H60.0671C68.3811 8.83789 74.3928 13.8753 74.3928 24.5466V27.9858C74.3928 38.6571 68.3811 43.6945 60.0671 43.6945H58.9799C54.1834 43.6945 50.4528 41.9712 48.0438 38.5909H46.6866V58.9171H38.5645V9.41233H46.6866ZM46.6866 24.4582V28.0374C46.6866 33.9291 50.332 36.9191 55.9244 36.9191H56.9476C62.6324 36.9191 66.1854 33.8039 66.1854 28.0374V24.4582C66.1854 18.6254 62.6324 15.5102 56.9476 15.5102H55.9599C50.332 15.5102 46.6866 18.5592 46.6866 24.4582Z" fill="white"/>
<path d="M89.4073 9.41196V13.3226H90.7503C92.605 10.4725 95.419 8.81543 99.8318 8.81543C106.611 8.81543 110.384 12.4977 110.384 21.6077V23.5667H102.774V22.4031C102.774 18.2274 100.727 15.8413 96.1864 15.8413C91.5178 15.8413 89.4073 18.2274 89.4073 22.4031V43.024H81.2852V9.41196H89.4073Z" fill="white"/>
<path d="M136.236 8.83789C146.056 8.83789 152.48 13.9931 150.298 24.5466L149.509 28.3246H121.739C120.46 34.4888 123.331 37.4714 129.208 37.4714H130.309C135.603 37.4714 139.035 35.5493 140.734 32.0364H148.358C145.935 39.0622 139.355 43.7019 129.016 43.7019H127.907C118.087 43.7019 111.72 38.5982 113.901 28.0595L114.612 24.5466C116.822 13.9931 125.257 8.83789 135.141 8.83789H136.236ZM122.933 22.6023H142.83C143.455 17.6975 140.336 14.98 135.013 14.98H133.912C128.248 14.98 124.354 17.6312 122.933 22.6023Z" fill="white"/>
<path d="M178.161 8.83789C187.975 8.83789 194.398 13.9931 192.217 24.5466L191.435 28.3246H163.658C162.386 34.4888 165.25 37.4714 171.133 37.4714H172.228C177.522 37.4714 180.961 35.5493 182.652 32.0364H190.277C187.854 39.0327 181.274 43.6798 170.935 43.6798H169.833C160.013 43.6798 153.646 38.5761 155.827 28.0374L156.538 24.5245C158.748 13.9931 167.175 8.83789 177.06 8.83789H178.161ZM164.859 22.6023H184.756C185.381 17.6975 182.261 14.98 176.904 14.98H175.802C170.167 14.98 166.28 17.6312 164.859 22.6023Z" fill="white"/>
<path d="M206.442 9.41159V13.8304H207.864C209.846 10.7151 213.492 8.79297 218.352 8.79297H219.375C227.043 8.79297 231.775 13.3001 231.775 22.8446V43.0163H223.582V24.2586C223.582 18.7573 220.832 15.8409 215.588 15.8409H214.6C209.484 15.8409 206.478 18.7867 206.478 24.2586V43.0163H198.32V9.41159H206.442Z" fill="white"/>
<path d="M248.844 0V9.41195H265.465V15.7087H248.844V31.6678C248.844 35.1807 250.571 37.1028 253.761 37.1028H254.856C258.053 37.1028 259.709 35.1807 259.709 31.6678V29.0165H267V31.6678C267 40.0855 262.026 43.6647 254.92 43.6647H253.84C246.357 43.6647 240.729 40.0855 240.729 31.6678V15.7087H235.677V9.41195H240.729V0H248.844Z" fill="white"/>
</g>
<defs>
<clipPath id="clip0_10034_405">
<rect width="267" height="58.9241" fill="white"/>
</clipPath>
</defs>
</svg>
